<?xml version="1.0" encoding="UTF-8"?>
<!DOCTYPE svg  PUBLIC '-//W3C//DTD SVG 1.1//EN'  'http://www.w3.org/Graphics/SVG/1.1/DTD/svg11.dtd'>
<svg width="800px" height="800px" clip-rule="evenodd" fill="#000000" fill-rule="evenodd" stroke-linejoin="round" stroke-miterlimit="2" version="1.1" viewBox="-6.4 -6.4 76.8 76.8" xml:space="preserve" xmlns="http://www.w3.org/2000/svg" xmlns:serif="http://www.serif.com/">





 <rect y="-192" width="1280" height="800" fill="none"/> <g serif:id="Icons">                         <path d="m32.029 8.345c-13.27 0-24.029 10.759-24.029 24.033 0 10.617 6.885 19.624 16.435 22.803 1.202 0.22 1.64-0.522 1.64-1.16 0-0.569-0.02-2.081-0.032-4.086-6.685 1.452-8.095-3.222-8.095-3.222-1.093-2.775-2.669-3.514-2.669-3.514-2.182-1.492 0.165-1.462 0.165-1.462 2.412 0.171 3.681 2.477 3.681 2.477 2.144 3.672 5.625 2.611 6.994 1.997 0.219-1.553 0.838-2.612 1.526-3.213-5.336-0.606-10.947-2.669-10.947-11.877 0-2.623 0.937-4.769 2.474-6.449-0.247-0.608-1.072-3.051 0.235-6.36 0 0 2.018-0.646 6.609 2.464 1.917-0.533 3.973-0.8 6.016-0.809 2.041 9e-3 4.097 0.276 6.017 0.809 4.588-3.11 6.602-2.464 6.602-2.464 1.311 3.309 0.486 5.752 0.239 6.36 1.54 1.68 2.471 3.826 2.471 6.449 0 9.232-5.62 11.263-10.974 11.858 0.864 0.742 1.632 2.208 1.632 4.451 0 3.212-0.029 5.804-0.029 6.591 0 0.644 0.432 1.392 1.652 1.157 9.542-3.185 16.421-12.186 16.421-22.8 0-13.274-10.76-24.033-24.034-24.033" fill="#fff"/>                         </g> 

</svg>
