<?xml version="1.0" encoding="UTF-8"?>
<!DOCTYPE svg  PUBLIC '-//W3C//DTD SVG 1.1//EN'  'http://www.w3.org/Graphics/SVG/1.1/DTD/svg11.dtd'>
<svg width="800px" height="800px" clip-rule="evenodd" fill="#000000" fill-rule="evenodd" stroke-linecap="round" stroke-linejoin="round" stroke-miterlimit="1.5" version="1.1" viewBox="-6.4 -6.4 76.8 76.8" xml:space="preserve" xmlns="http://www.w3.org/2000/svg">





 <g transform="translate(-84)"> <g transform="translate(-188.33)"> <rect x="272.33" width="64" height="64" fill="none"/> <g transform="translate(180.33)"> <path d="m121.48 5.673c0.429-1.014 1.424-1.673 2.525-1.673s2.096 0.659 2.525 1.673l1.845 4.357 3.372-3.319c0.784-0.773 1.955-1.001 2.973-0.58 1.018 0.422 1.684 1.411 1.693 2.513l0.037 4.731 4.385-1.777c1.021-0.413 2.19-0.176 2.969 0.603s1.016 1.948 0.603 2.969l-1.777 4.385 4.731 0.037c1.102 9e-3 2.091 0.675 2.513 1.693 0.421 1.018 0.193 2.189-0.58 2.973l-3.319 3.372 4.357 1.845c1.014 0.429 1.673 1.424 1.673 2.525s-0.659 2.096-1.673 2.525l-4.357 1.845 3.319 3.372c0.773 0.784 1.001 1.955 0.58 2.973-0.422 1.018-1.411 1.684-2.513 1.693l-4.731 0.037 1.777 4.385c0.413 1.021 0.176 2.19-0.603 2.969s-1.948 1.016-2.969 0.603l-4.385-1.777-0.037 4.731c-9e-3 1.102-0.675 2.091-1.693 2.513-1.018 0.421-2.189 0.193-2.973-0.58l-3.372-3.319-1.845 4.357c-0.429 1.014-1.424 1.673-2.525 1.673s-2.096-0.659-2.525-1.673l-1.845-4.357-3.372 3.319c-0.784 0.773-1.955 1.001-2.973 0.58-1.018-0.422-1.684-1.411-1.693-2.513l-0.037-4.731-4.385 1.777c-1.021 0.413-2.19 0.176-2.969-0.603s-1.016-1.948-0.603-2.969l1.777-4.385-4.731-0.037c-1.102-9e-3 -2.091-0.675-2.513-1.693-0.421-1.018-0.193-2.189 0.58-2.973l3.319-3.372-4.357-1.845c-1.014-0.429-1.673-1.424-1.673-2.525s0.659-2.096 1.673-2.525l4.357-1.845-3.319-3.372c-0.773-0.784-1.001-1.955-0.58-2.973 0.422-1.018 1.411-1.684 2.513-1.693l4.731-0.037-1.777-4.385c-0.413-1.021-0.176-2.19 0.603-2.969s1.948-1.016 2.969-0.603l4.385 1.777 0.037-4.731c9e-3 -1.102 0.675-2.091 1.693-2.513 1.018-0.421 2.189-0.193 2.973 0.58l3.372 3.319 1.845-4.357z" fill="#fff" stroke="#1A202C" stroke-width="2px"/> </g> <g transform="matrix(1.0104 0 0 1.0588 185.39 2.1365)"> <path d="m116 31s-1.651-6.52 6-6 4.254 7.473 1 10-15.816 3.659-14-7 11-8 11-8" fill="none" stroke="#E03131" stroke-width="1.93px"/> </g> </g> </g> 

</svg>
