<?xml version="1.0" encoding="UTF-8"?>
<!DOCTYPE svg  PUBLIC '-//W3C//DTD SVG 1.1//EN'  'http://www.w3.org/Graphics/SVG/1.1/DTD/svg11.dtd'>
<svg width="800px" height="800px" fill="none" stroke="#ffffff" viewBox="-2.4 -2.4 28.8 28.8" xmlns="http://www.w3.org/2000/svg">
<g clip-path="url(#a)">
<path d="m7.8 12h-0.75 0.75zm8.4 0h0.75-0.75zm-4.2 4.2v0.75-0.75zm2.1729 6.0749 0.1544 0.7339-0.1544-0.7339zm-4.3458 0-0.15443 0.7339 0.15443-0.7339zm-7.5516-14.243-0.69432-0.28358 0.69432 0.28358zm-0.55044 6.1406-0.73393 0.1544 0.73393-0.1544zm8.102-12.448-0.15443-0.73393 0.15443 0.73393zm4.3458 0 0.1544-0.73393-0.1544 0.73393zm7.467 6.345 0.2177 0.71771-0.2177-0.71771zm-19.281-3.8e-4 -0.21771 0.71771 0.21771-0.71771zm18.672 0.24874c0.4632 1.1349 0.7188 2.3774 0.7188 3.6815h1.5c0-1.5017-0.2947-2.9365-0.83-4.2483l-1.3888 0.56676zm0.7188 3.6815c0 0.6927-0.0721 1.3678-0.209 2.0184l1.4678 0.3089c0.1582-0.7516 0.2412-1.5301 0.2412-2.3273h-1.5zm-0.209 2.0184c-0.7921 3.7643-3.7582 6.7305-7.5226 7.5226l0.3089 1.4678c4.3462-0.9145 7.767-4.3353 8.6815-8.6815l-1.4678-0.3089zm-7.5226 7.5226c-0.6506 0.1369-1.3257 0.209-2.0184 0.209v1.5c0.7972 0 1.5757-0.083 2.3273-0.2412l-0.3089-1.4678zm-2.0184 0.209c-0.6928 0-1.3678-0.0721-2.0184-0.209l-0.30887 1.4678c0.75151 0.1582 1.5301 0.2412 2.3273 0.2412v-1.5zm-9.75-9.75c0-1.3051 0.25601-2.5485 0.71986-3.6842l-1.3886-0.56717c-0.53612 1.3126-0.83122 2.7484-0.83122 4.2513h1.5zm7.7316 9.541c-3.7643-0.7921-6.7304-3.7583-7.5225-7.5226l-1.4679 0.3089c0.91454 4.3462 4.3353 7.767 8.6815 8.6815l0.30887-1.4678zm-7.5225-7.5226c-0.1369-0.6506-0.20903-1.3257-0.20903-2.0184h-1.5c0 0.7972 0.08303 1.5757 0.24117 2.3273l1.4679-0.3089zm0.51083-5.7026c1.2072-2.9557 3.824-5.186 7.0117-5.8568l-0.30886-1.4679c-3.6824 0.77485-6.699 3.3482-8.0915 6.7575l1.3886 0.56717zm7.0117-5.8568c0.65065-0.1369 1.3256-0.20903 2.0184-0.20903v-1.5c-0.7972 0-1.5758 0.08303-2.3273 0.24117l0.30886 1.4679zm2.0184-0.20903c0.6927 0 1.3678 0.07213 2.0184 0.20903l0.3089-1.4679c-0.7516-0.15814-1.5301-0.24117-2.3273-0.24117v1.5zm2.0184 0.20903c3.1887 0.67097 5.8061 2.9025 7.0128 5.8595l1.3888-0.56676c-1.3919-3.4108-4.4092-5.9855-8.0927-6.7606l-0.3089 1.4679zm-0.56-0.50594c0.2898 0.90831 1.3631 4.4031 1.8031 7.6151l1.4861-0.20359c-0.4586-3.348-1.5663-6.9463-1.8602-7.8675l-1.429 0.45597zm1.8031 7.6151c0.118 0.861 0.1885 1.6886 0.1885 2.4318h1.5c0-0.8319-0.0785-1.731-0.2024-2.6354l-1.4861 0.20359zm6.1607-2.2158c-1.153 0.3497-3.3189 0.96398-5.5537 1.3764l0.2722 1.4751c2.3139-0.4271 4.5402-1.0593 5.7169-1.4162l-0.4354-1.4354zm-5.5537 1.3764c-1.3556 0.25018-2.7106 0.42114-3.8685 0.42114v1.5c1.2874 0 2.743-0.1881 4.1407-0.446l-0.2722-1.4751zm-0.4185 3.2711c0 1.1009-0.1546 2.3808-0.3853 3.671l1.4766 0.264c0.2384-1.3331 0.4087-2.7098 0.4087-3.935h-1.5zm-0.3853 3.671c-0.5056 2.8282-1.355 5.5883-1.6063 6.3759l1.429 0.456c0.2576-0.8073 1.1307-3.6416 1.6539-6.5679l-1.4766-0.264zm6.9822-2.2126c-0.7876 0.2513-3.5477 1.1007-6.3759 1.6063l0.264 1.4766c2.9263-0.5232 5.7606-1.3963 6.5679-1.6539l-0.456-1.429zm-6.3759 1.6063c-1.2902 0.2307-2.5701 0.3853-3.671 0.3853v1.5c1.2252 0 2.6019-0.1703 3.935-0.4087l-0.264-1.4766zm-3.671 0.3853c-1.1009 0-2.3808-0.1546-3.671-0.3853l-0.26401 1.4766c1.3331 0.2384 2.7098 0.4087 3.935 0.4087v-1.5zm-3.671-0.3853c-2.8282-0.5056-5.5883-1.355-6.3759-1.6063l-0.45597 1.429c0.80725 0.2576 3.6416 1.1307 6.5678 1.6539l0.26401-1.4766zm-1.279-3.0647c0 1.2252 0.17032 2.6019 0.40867 3.935l1.4766-0.264c-0.2307-1.2902-0.38526-2.5701-0.38526-3.671h-1.5zm0.40867 3.935c0.52321 2.9263 1.3964 5.7606 1.6539 6.5679l1.429-0.456c-0.2513-0.7876-1.1007-3.5477-1.6063-6.3759l-1.4766 0.264zm1.6539-14.438c-0.29394 0.92123-1.4016 4.5195-1.8603 7.8675l1.4861 0.20359c0.44003-3.212 1.5133-6.7068 1.8031-7.6151l-1.429-0.45597zm-1.8603 7.8675c-0.12389 0.90439-0.20235 1.8035-0.20235 2.6354h1.5c0-0.7432 0.07052-1.5708 0.18846-2.4318l-1.4861-0.20359zm4.7476-0.21461c-1.1579 0-2.5129-0.17096-3.8685-0.42114l-0.27223 1.4751c1.3977 0.2579 2.8533 0.446 4.1407 0.446v-1.5zm-3.8685-0.42114c-2.2357-0.41261-4.4023-1.0272-5.555-1.3768l-0.43541 1.4354c1.1763 0.35681 3.4034 0.98928 5.7181 1.4165l0.27223-1.4751zm13.248-1.3594c0.0119-0.0062 0.0265-0.01231 0.0422-0.01708l0.4354 1.4354c0.0754-0.02287 0.1463-0.05216 0.2136-0.08711l-0.6912-1.3312zm-19.496 1.3026c0.07897 0.04829 0.16463 0.08739 0.25691 0.11538l0.43541-1.4354c0.03326 0.01009 0.06391 0.02425 0.09026 0.04037l-0.78258 1.2797z" fill="#fff"/>
</g>
<defs>
<clipPath id="a">
<rect width="24" height="24" fill="#fff"/>
</clipPath>
</defs>
</svg>
